<?xml version="1.0" encoding="utf-8"?>
<!-- Generator: Adobe Illustrator 19.0.1, SVG Export Plug-In . SVG Version: 6.00 Build 0)  -->
<svg version="1.1" id="Icon" xmlns="http://www.w3.org/2000/svg" xmlns:xlink="http://www.w3.org/1999/xlink" x="0px" y="0px"
	 viewBox="0 0 512 512" enable-background="new 0 0 512 512" xml:space="preserve">
<g>
	<g>
		
			<ellipse fill="none" stroke="#000000" stroke-width="20" stroke-linecap="round" stroke-linejoin="round" stroke-miterlimit="10" cx="149.8" cy="361.3" rx="40.7" ry="40.7"/>
		
			<ellipse fill="none" stroke="#000000" stroke-width="20" stroke-linecap="round" stroke-linejoin="round" stroke-miterlimit="10" cx="325.8" cy="361.3" rx="40.7" ry="40.7"/>
	</g>
	<g>
		
			<rect x="108.5" y="186.8" fill="none" stroke="#000000" stroke-width="20" stroke-linecap="round" stroke-linejoin="round" stroke-miterlimit="10" width="98.4" height="71.2"/>
		
			<rect x="268.8" y="186.8" fill="none" stroke="#000000" stroke-width="20" stroke-linecap="round" stroke-linejoin="round" stroke-miterlimit="10" width="98.4" height="71.2"/>
	</g>
	
		<polyline fill="none" stroke="#000000" stroke-width="20" stroke-linecap="round" stroke-linejoin="round" stroke-miterlimit="10" points="
		173.5,142.1 173.5,110 302.1,110 302.1,142.1 	"/>
	
		<line fill="none" stroke="#000000" stroke-width="20" stroke-linecap="round" stroke-linejoin="round" stroke-miterlimit="10" x1="411.6" y1="327.9" x2="448" y2="327.9"/>
	<path fill="none" stroke="#000000" stroke-width="20" stroke-linecap="round" stroke-linejoin="round" stroke-miterlimit="10" d="
		M109.1,361.3H87.6c-13.1,0-23.6-10.6-23.6-23.6V165.8c0-13.1,10.6-23.6,23.6-23.6H388c13.1,0,23.6,10.6,23.6,23.6v171.9
		c0,13.1-10.6,23.6-23.6,23.6h-21.5"/>
	
		<line fill="none" stroke="#000000" stroke-width="20" stroke-linecap="round" stroke-linejoin="round" stroke-miterlimit="10" x1="285.1" y1="361.3" x2="190.5" y2="361.3"/>
</g>
</svg>
