<?xml version="1.0" encoding="utf-8"?>
<!-- Generator: Adobe Illustrator 19.0.1, SVG Export Plug-In . SVG Version: 6.00 Build 0)  -->
<svg version="1.1" id="Icon" xmlns="http://www.w3.org/2000/svg" xmlns:xlink="http://www.w3.org/1999/xlink" x="0px" y="0px"
	 viewBox="0 0 512 512" enable-background="new 0 0 512 512" xml:space="preserve">
<path fill="none" stroke="#000000" stroke-width="20" stroke-linecap="round" stroke-linejoin="round" stroke-miterlimit="10" d="
	M198.8,372.7c7.7,6.4,14.3,13.9,19.5,22.3h75.4c5.2-8.3,11.7-15.9,19.5-22.3c41.5-34.3,90.3-88.7,90.3-154.7
	C403.5,103.5,337.5,64,256,64s-147.5,39.5-147.5,154.1C108.5,284,157.4,338.4,198.8,372.7z"/>
<line fill="none" stroke="#000000" stroke-width="20" stroke-linecap="round" stroke-linejoin="round" stroke-miterlimit="10" x1="168" y1="344.1" x2="344" y2="344.1"/>
<path fill="none" stroke="#000000" stroke-width="20" stroke-linecap="round" stroke-linejoin="round" stroke-miterlimit="10" d="
	M214.1,344.1c-4.7-28.1-7.4-61.1-7.4-96.6C206.7,146.2,228.8,64,256,64s49.3,82.2,49.3,183.5c0,35.4-2.7,68.5-7.4,96.6"/>
<polyline fill="none" stroke="#000000" stroke-width="20" stroke-linecap="round" stroke-linejoin="round" stroke-miterlimit="10" points="
	292.6,395 292.6,448 218.3,448 218.3,395 "/>
</svg>
