<?xml version="1.0" encoding="utf-8"?>
<!-- Generator: Adobe Illustrator 19.0.1, SVG Export Plug-In . SVG Version: 6.00 Build 0)  -->
<svg version="1.1" id="Icon" xmlns="http://www.w3.org/2000/svg" xmlns:xlink="http://www.w3.org/1999/xlink" x="0px" y="0px"
	 viewBox="0 0 512 512" enable-background="new 0 0 512 512" xml:space="preserve">
<g>
	<path fill="none" stroke="#000000" stroke-width="20" stroke-linecap="round" stroke-linejoin="round" stroke-miterlimit="10" d="
		M419.8,355.6H92.2c-7.8,0-14.2-6.3-14.2-14.2v-87.8c0-24.5,19.9-44.4,44.4-44.4h267c24.5,0,44.4,19.9,44.4,44.4v87.8
		C434,349.2,427.6,355.6,419.8,355.6z"/>
	<g>
		
			<polyline fill="none" stroke="#000000" stroke-width="20" stroke-linecap="round" stroke-linejoin="round" stroke-miterlimit="10" points="
			170.2,355.6 170.2,421 111.1,421 111.1,355.6 		"/>
		
			<polyline fill="none" stroke="#000000" stroke-width="20" stroke-linecap="round" stroke-linejoin="round" stroke-miterlimit="10" points="
			400.9,355.6 400.9,421 341.8,421 341.8,355.6 		"/>
	</g>
	<g>
		
			<line fill="none" stroke="#000000" stroke-width="20" stroke-linecap="round" stroke-linejoin="round" stroke-miterlimit="10" x1="205.9" y1="267" x2="306.1" y2="267"/>
		
			<line fill="none" stroke="#000000" stroke-width="20" stroke-linecap="round" stroke-linejoin="round" stroke-miterlimit="10" x1="205.9" y1="309.6" x2="306.1" y2="309.6"/>
	</g>
	<g>
		
			<ellipse fill="none" stroke="#000000" stroke-width="20" stroke-linecap="round" stroke-linejoin="round" stroke-miterlimit="10" cx="137.7" cy="267" rx="23.3" ry="23.2"/>
		
			<ellipse fill="none" stroke="#000000" stroke-width="20" stroke-linecap="round" stroke-linejoin="round" stroke-miterlimit="10" cx="374.3" cy="267" rx="23.3" ry="23.2"/>
	</g>
	<path fill="none" stroke="#000000" stroke-width="20" stroke-linecap="round" stroke-linejoin="round" stroke-miterlimit="10" d="
		M400.3,209.2l-18.9-77.3c-5.9-24-27.3-40.9-52-40.9H182.6c-24.7,0-46.2,16.9-52,40.9l-18.9,77.3"/>
	<g>
		
			<line fill="none" stroke="#000000" stroke-width="20" stroke-linecap="round" stroke-linejoin="round" stroke-miterlimit="10" x1="64" y1="198.1" x2="114.9" y2="198.1"/>
		
			<line fill="none" stroke="#000000" stroke-width="20" stroke-linecap="round" stroke-linejoin="round" stroke-miterlimit="10" x1="397.1" y1="198.1" x2="448" y2="198.1"/>
	</g>
</g>
</svg>
