<?xml version="1.0" encoding="utf-8"?>
<!-- Generator: Adobe Illustrator 19.0.1, SVG Export Plug-In . SVG Version: 6.00 Build 0)  -->
<svg version="1.1" id="Icon" xmlns="http://www.w3.org/2000/svg" xmlns:xlink="http://www.w3.org/1999/xlink" x="0px" y="0px"
	 viewBox="0 0 512 512" enable-background="new 0 0 512 512" xml:space="preserve">
<g>
	<g>
		<path fill="none" stroke="#000000" stroke-width="20" stroke-linecap="round" stroke-linejoin="round" stroke-miterlimit="10" d="
			M229.1,354.5c32.2-20,65.5-46.4,97.1-78.1C399.5,203.1,444.5,121.2,448,64c-57.2,3.5-139.1,48.5-212.4,121.8
			c-31.7,31.7-58,64.9-78.1,97.1L229.1,354.5z"/>
		
			<polyline fill="none" stroke="#000000" stroke-width="20" stroke-linecap="round" stroke-linejoin="round" stroke-miterlimit="10" points="
			166.1,291.5 143.6,323.7 188.3,368.4 220.5,345.9 		"/>
		<g>
			
				<path fill="none" stroke="#000000" stroke-width="20" stroke-linecap="round" stroke-linejoin="round" stroke-miterlimit="10" d="
				M229.4,354.4c6.1,26.7,4,58.7-5.7,93.6c17.8-9.7,35.1-22.5,50.8-38.3c42.7-42.7,63.9-96.6,60.2-142.1"/>
			
				<path fill="none" stroke="#000000" stroke-width="20" stroke-linecap="round" stroke-linejoin="round" stroke-miterlimit="10" d="
				M244.4,177.2c-45.5-3.6-99.3,17.5-142.1,60.2c-15.8,15.8-28.6,33-38.3,50.8c34.9-9.7,66.9-11.8,93.6-5.7"/>
		</g>
		
			<circle fill="none" stroke="#000000" stroke-width="20" stroke-linecap="round" stroke-linejoin="round" stroke-miterlimit="10" cx="342.8" cy="169.2" r="25.8"/>
		
			<circle fill="none" stroke="#000000" stroke-width="20" stroke-linecap="round" stroke-linejoin="round" stroke-miterlimit="10" cx="280.1" cy="231.9" r="25.8"/>
	</g>
	<g>
		
			<line fill="none" stroke="#000000" stroke-width="20" stroke-linecap="round" stroke-linejoin="round" stroke-miterlimit="10" x1="139.7" y1="372.3" x2="79.9" y2="432.1"/>
		
			<line fill="none" stroke="#000000" stroke-width="20" stroke-linecap="round" stroke-linejoin="round" stroke-miterlimit="10" x1="117" y1="349.6" x2="92.2" y2="374.3"/>
		
			<line fill="none" stroke="#000000" stroke-width="20" stroke-linecap="round" stroke-linejoin="round" stroke-miterlimit="10" x1="162.4" y1="395" x2="137.7" y2="419.8"/>
	</g>
</g>
</svg>
