<?xml version="1.0" encoding="utf-8"?>
<!-- Generator: Adobe Illustrator 19.0.1, SVG Export Plug-In . SVG Version: 6.00 Build 0)  -->
<svg version="1.1" id="Icon" xmlns="http://www.w3.org/2000/svg" xmlns:xlink="http://www.w3.org/1999/xlink" x="0px" y="0px"
	 viewBox="0 0 512 512" enable-background="new 0 0 512 512" xml:space="preserve">
<g>
	
		<ellipse fill="none" stroke="#000000" stroke-width="20" stroke-linecap="round" stroke-linejoin="round" stroke-miterlimit="10" cx="154.5" cy="388.8" rx="40.7" ry="40.7"/>
	
		<ellipse fill="none" stroke="#000000" stroke-width="20" stroke-linecap="round" stroke-linejoin="round" stroke-miterlimit="10" cx="357" cy="388.8" rx="40.7" ry="40.7"/>
	<path fill="none" stroke="#000000" stroke-width="20" stroke-linecap="round" stroke-linejoin="round" stroke-miterlimit="10" d="
		M113.8,388.8H90.1c-14.4,0-26.1-10.6-26.1-23.6v-172c0-13.1,11.7-23.6,26.1-23.6h331.8c14.4,0,26.1,10.6,26.1,23.6v172
		c0,13.1-11.7,23.6-26.1,23.6h-23.7"/>
	
		<line fill="none" stroke="#000000" stroke-width="20" stroke-linecap="round" stroke-linejoin="round" stroke-miterlimit="10" x1="316.3" y1="388.8" x2="195.2" y2="388.8"/>
	<path fill="none" stroke="#000000" stroke-width="20" stroke-linecap="round" stroke-linejoin="round" stroke-miterlimit="10" d="
		M64,261.9h283l16.7,10.8c10,6.5,21.6,9.9,33.5,9.9H448"/>
	
		<line fill="none" stroke="#000000" stroke-width="20" stroke-linecap="round" stroke-linejoin="round" stroke-miterlimit="10" x1="347" y1="261.9" x2="347" y2="169.5"/>
	
		<line fill="none" stroke="#000000" stroke-width="20" stroke-linecap="round" stroke-linejoin="round" stroke-miterlimit="10" x1="157.7" y1="261.9" x2="157.7" y2="169.5"/>
	
		<line fill="none" stroke="#000000" stroke-width="20" stroke-linecap="round" stroke-linejoin="round" stroke-miterlimit="10" x1="252.3" y1="261.9" x2="252.3" y2="169.5"/>
	<path fill="none" stroke="#000000" stroke-width="20" stroke-linecap="round" stroke-linejoin="round" stroke-miterlimit="10" d="
		M269.7,169.5V154c0-6.4,5.1-11.5,11.5-11.5h91.3c6.4,0,11.5,5.2,11.5,11.5v15.5"/>
	
		<line fill="none" stroke="#000000" stroke-width="20" stroke-linecap="round" stroke-linejoin="round" stroke-miterlimit="10" x1="323.7" y1="142.5" x2="99" y2="82.5"/>
</g>
</svg>
