<?xml version="1.0" encoding="utf-8"?>
<!-- Generator: Adobe Illustrator 19.0.1, SVG Export Plug-In . SVG Version: 6.00 Build 0)  -->
<svg version="1.1" id="Icon" xmlns="http://www.w3.org/2000/svg" xmlns:xlink="http://www.w3.org/1999/xlink" x="0px" y="0px"
	 viewBox="0 0 512 512" enable-background="new 0 0 512 512" xml:space="preserve">
<g>
	<g>
		<g>
			
				<path fill="none" stroke="#000000" stroke-width="20" stroke-linecap="round" stroke-linejoin="round" stroke-miterlimit="10" d="
				M406.1,324.5l41.7-41.7c0.3-0.3,0.2-0.7,0-0.9l-32.8-32.8l-25.7,25.7"/>
			
				<path fill="none" stroke="#000000" stroke-width="20" stroke-linecap="round" stroke-linejoin="round" stroke-miterlimit="10" d="
				M165.9,359l55.2,88.8c0.1,0.2,0.4,0.3,0.6,0.1l16.3-16.3c0.1-0.1,0.1-0.2,0.1-0.3l-18.8-97.6"/>
			
				<path fill="none" stroke="#000000" stroke-width="20" stroke-linecap="round" stroke-linejoin="round" stroke-miterlimit="10" d="
				M285,280.7l64,67.7l70,87.8c0.1,0.2,0.4,0.2,0.6,0l14.9-14.9c0.1-0.1,0.1-0.2,0.1-0.4L366,199.6"/>
		</g>
		<g>
			
				<path fill="none" stroke="#000000" stroke-width="20" stroke-linecap="round" stroke-linejoin="round" stroke-miterlimit="10" d="
				M187.5,105.9l41.7-41.7c0.3-0.3,0.7-0.2,0.9,0l32.8,32.8l-25.7,25.7"/>
			
				<path fill="none" stroke="#000000" stroke-width="20" stroke-linecap="round" stroke-linejoin="round" stroke-miterlimit="10" d="
				M152.8,346.5l-88.6-55.6c-0.2-0.1-0.3-0.4-0.1-0.6L80.4,274c0.1-0.1,0.2-0.1,0.3-0.1l97.6,18.8"/>
			
				<path fill="none" stroke="#000000" stroke-width="20" stroke-linecap="round" stroke-linejoin="round" stroke-miterlimit="10" d="
				M231.3,227l-67.7-64L75.8,93c-0.2-0.1-0.2-0.4,0-0.6l14.9-14.9c0.1-0.1,0.2-0.1,0.4-0.1L312.4,146"/>
		</g>
	</g>
	<path fill="none" stroke="#000000" stroke-width="20" stroke-linecap="round" stroke-linejoin="round" stroke-miterlimit="10" d="
		M262.2,303.5l153.1-153.1c1.6-1.6,48.3-47.8,20.9-75.3c-26.7-26.7-72.9,20-74.6,21.7L208.6,249.8c-12.4,12.4-22.6,26.9-30.2,42.9
		l-34.3,72.3l3,3l72.3-34.3C235.3,326.1,249.8,315.9,262.2,303.5z"/>
</g>
</svg>
