<?xml version="1.0" encoding="utf-8"?>
<!-- Generator: Adobe Illustrator 19.0.1, SVG Export Plug-In . SVG Version: 6.00 Build 0)  -->
<svg version="1.1" id="Icon" xmlns="http://www.w3.org/2000/svg" xmlns:xlink="http://www.w3.org/1999/xlink" x="0px" y="0px"
	 viewBox="0 0 512 512" enable-background="new 0 0 512 512" xml:space="preserve">
<g>
	
		<ellipse fill="none" stroke="#000000" stroke-width="20" stroke-linecap="round" stroke-linejoin="round" stroke-miterlimit="10" cx="142" cy="316.4" rx="37.7" ry="37.6"/>
	
		<ellipse fill="none" stroke="#000000" stroke-width="20" stroke-linecap="round" stroke-linejoin="round" stroke-miterlimit="10" cx="372.7" cy="316.4" rx="37.7" ry="37.6"/>
	<path fill="none" stroke="#000000" stroke-width="20" stroke-linecap="round" stroke-linejoin="round" stroke-miterlimit="10" d="
		M410.3,316.4h19.9c9.8,0,17.7-7.9,17.7-17.7v-22.4c0-0.1,0-0.2,0-0.3c-0.1-16.7-12.4-30.9-28.9-33.6L339.9,229
		c-3.2-0.8-5.9-2.7-7.7-5.5l-35.4-54.4c-4.3-6.9-11.9-11.1-20.1-11.1H144.1c-14.7,0-28.6,6.7-37.6,18.3l-27.2,34.6
		C69.4,223.5,64,239,64,255v43.6c0,9.8,7.9,17.7,17.7,17.7h22.6"/>
	
		<line fill="none" stroke="#000000" stroke-width="20" stroke-linecap="round" stroke-linejoin="round" stroke-miterlimit="10" x1="179.7" y1="316.4" x2="335" y2="316.4"/>
	
		<line fill="none" stroke="#000000" stroke-width="20" stroke-linecap="round" stroke-linejoin="round" stroke-miterlimit="10" x1="335" y1="227.8" x2="69.4" y2="227.8"/>
	
		<line fill="none" stroke="#000000" stroke-width="20" stroke-linecap="round" stroke-linejoin="round" stroke-miterlimit="10" x1="230.1" y1="158" x2="222.6" y2="227.8"/>
	
		<line fill="none" stroke="#000000" stroke-width="20" stroke-linecap="round" stroke-linejoin="round" stroke-miterlimit="10" x1="154.3" y1="158" x2="132.8" y2="227.8"/>
</g>
</svg>
