<?xml version="1.0" encoding="utf-8"?>
<!-- Generator: Adobe Illustrator 19.0.1, SVG Export Plug-In . SVG Version: 6.00 Build 0)  -->
<svg version="1.1" id="Icon" xmlns="http://www.w3.org/2000/svg" xmlns:xlink="http://www.w3.org/1999/xlink" x="0px" y="0px"
	 viewBox="0 0 512 512" enable-background="new 0 0 512 512" xml:space="preserve">
<g>
	
		<polyline fill="none" stroke="#000000" stroke-width="20" stroke-linecap="round" stroke-linejoin="round" stroke-miterlimit="10" points="
		185.2,262.5 85.6,235.5 64,249.9 123.5,303.8 	"/>
	
		<polyline fill="none" stroke="#000000" stroke-width="20" stroke-linecap="round" stroke-linejoin="round" stroke-miterlimit="10" points="
		274.9,253.3 250.9,388.5 298.4,357.9 361.2,197.8 	"/>
	
		<polyline fill="none" stroke="#000000" stroke-width="20" stroke-linecap="round" stroke-linejoin="round" stroke-miterlimit="10" points="
		332.7,163 215,164.9 187.6,183.4 250,218.4 	"/>
	<path fill="none" stroke="#000000" stroke-width="20" stroke-linecap="round" stroke-linejoin="round" stroke-miterlimit="10" d="
		M349.1,228.5l68-45.5c21.1-14.1,38.4-30.7,27.5-47.8c-5.2-8.2-38.8-18.8-61.2-5.3l-9.4,6.3L123.5,303.8c-4,2.7-6,9.5-3,14.2
		c0.6,0.9,1.3,1.6,2.1,2.2c3.5,2.7,9,3.1,12.8,2.4c0,0,51.9,11.1,134.7-42.2"/>
</g>
</svg>
