<?xml version="1.0" encoding="utf-8"?>
<!-- Generator: Adobe Illustrator 19.0.1, SVG Export Plug-In . SVG Version: 6.00 Build 0)  -->
<svg version="1.1" id="Icon" xmlns="http://www.w3.org/2000/svg" xmlns:xlink="http://www.w3.org/1999/xlink" x="0px" y="0px"
	 viewBox="0 0 512 512" enable-background="new 0 0 512 512" xml:space="preserve">
<g>
	<path fill="none" stroke="#000000" stroke-width="20" stroke-linecap="round" stroke-linejoin="round" stroke-miterlimit="10" d="
		M448,389.9L448,389.9c-8.2,8.1-21.4,8.1-29.5,0l0,0c-8.2-8.1-21.4-8.1-29.5,0l0,0c-8.2,8.1-21.4,8.1-29.5,0l0,0
		c-8.2-8.1-21.4-8.1-29.5,0l0,0c-8.2,8.1-21.4,8.1-29.5,0l0,0c-8.2-8.1-21.4-8.1-29.5,0l0,0c-8.2,8.1-21.4,8.1-29.5,0l0,0
		c-8.2-8.1-21.4-8.1-29.5,0l0,0c-8.2,8.1-21.4,8.1-29.5,0l0,0c-8.2-8.1-21.4-8.1-29.5,0l0,0c-8.2,8.1-21.4,8.1-29.5,0l0,0
		c-8.2-8.1-21.4-8.1-29.5,0l0,0c-8.2,8.1-21.4,8.1-29.5,0l0,0"/>
	
		<polyline fill="none" stroke="#000000" stroke-width="20" stroke-linecap="round" stroke-linejoin="round" stroke-miterlimit="10" points="
		339.7,383.8 394.5,248.2 256,185.4 117.5,248.2 172.3,383.8 	"/>
	
		<line fill="none" stroke="#000000" stroke-width="20" stroke-linecap="round" stroke-linejoin="round" stroke-miterlimit="10" x1="256" y1="185.4" x2="256" y2="340.5"/>
	
		<polyline fill="none" stroke="#000000" stroke-width="20" stroke-linecap="round" stroke-linejoin="round" stroke-miterlimit="10" points="
		161.3,227.8 161.3,116 350.7,116 350.7,227.8 	"/>
	<g>
		
			<line fill="none" stroke="#000000" stroke-width="20" stroke-linecap="round" stroke-linejoin="round" stroke-miterlimit="10" x1="193.3" y1="154.1" x2="211.6" y2="154.1"/>
		
			<line fill="none" stroke="#000000" stroke-width="20" stroke-linecap="round" stroke-linejoin="round" stroke-miterlimit="10" x1="246.8" y1="154.1" x2="265.2" y2="154.1"/>
		
			<line fill="none" stroke="#000000" stroke-width="20" stroke-linecap="round" stroke-linejoin="round" stroke-miterlimit="10" x1="300.4" y1="154.1" x2="318.8" y2="154.1"/>
	</g>
</g>
</svg>
