<?xml version="1.0" encoding="utf-8"?>
<!-- Generator: Adobe Illustrator 19.0.1, SVG Export Plug-In . SVG Version: 6.00 Build 0)  -->
<svg version="1.1" id="Icon" xmlns="http://www.w3.org/2000/svg" xmlns:xlink="http://www.w3.org/1999/xlink" x="0px" y="0px"
	 viewBox="0 0 512 512" enable-background="new 0 0 512 512" xml:space="preserve">
<g>
	<path fill="none" stroke="#000000" stroke-width="20" stroke-linecap="round" stroke-linejoin="round" stroke-miterlimit="10" d="
		M448,429.7L448,429.7c-8.2,8.4-21.4,8.4-29.5,0l0,0c-8.2-8.4-21.4-8.4-29.5,0l0,0c-8.2,8.4-21.4,8.4-29.5,0l0,0
		c-8.2-8.4-21.4-8.4-29.5,0l0,0c-8.2,8.4-21.4,8.4-29.5,0l0,0c-8.2-8.4-21.4-8.4-29.5,0l0,0c-8.2,8.4-21.4,8.4-29.5,0l0,0
		c-8.2-8.4-21.4-8.4-29.5,0l0,0c-8.2,8.4-21.4,8.4-29.5,0l0,0c-8.2-8.4-21.4-8.4-29.5,0l0,0c-8.2,8.4-21.4,8.4-29.5,0l0,0
		c-8.2-8.4-21.4-8.4-29.5,0l0,0c-8.2,8.4-21.4,8.4-29.5,0l0,0"/>
	
		<polyline fill="none" stroke="#000000" stroke-width="20" stroke-linecap="round" stroke-linejoin="round" stroke-miterlimit="10" points="
		346.2,423.6 412.7,368.5 99.3,368.5 165.8,423.6 	"/>
	
		<line fill="none" stroke="#000000" stroke-width="20" stroke-linecap="round" stroke-linejoin="round" stroke-miterlimit="10" x1="256" y1="368.5" x2="256" y2="76"/>
	<g>
		
			<polyline fill="none" stroke="#000000" stroke-width="20" stroke-linecap="round" stroke-linejoin="round" stroke-miterlimit="10" points="
			256.1,85.3 447.7,326.6 256.1,326.6 		"/>
		<path fill="none" stroke="#000000" stroke-width="20" stroke-linecap="round" stroke-linejoin="round" stroke-miterlimit="10" d="
			M255.7,127.2L255.7,127.2c-14.2,78.6-57.9,147.2-120.5,189.2L120,326.6h135.7"/>
	</g>
</g>
</svg>
