<?xml version="1.0" encoding="utf-8"?>
<!-- Generator: Adobe Illustrator 19.0.1, SVG Export Plug-In . SVG Version: 6.00 Build 0)  -->
<svg version="1.1" id="Icon" xmlns="http://www.w3.org/2000/svg" xmlns:xlink="http://www.w3.org/1999/xlink" x="0px" y="0px"
	 viewBox="0 0 512 512" enable-background="new 0 0 512 512" xml:space="preserve">
<g>
	<path fill="none" stroke="#000000" stroke-width="20" stroke-linecap="round" stroke-linejoin="round" stroke-miterlimit="10" d="
		M121.2,166.9c-3.5,33.4-7.1,84.4-7.1,118.1v75.5c0,19.5,13.9,35.2,31,35.2h111h111c17.1,0,31-15.8,31-35.2V285
		c0-33.6-3.6-84.7-7.1-118.1"/>
	<g>
		
			<polyline fill="none" stroke="#000000" stroke-width="20" stroke-linecap="round" stroke-linejoin="round" stroke-miterlimit="10" points="
			187.6,395.7 187.6,448 140.4,448 140.4,395.7 		"/>
		
			<polyline fill="none" stroke="#000000" stroke-width="20" stroke-linecap="round" stroke-linejoin="round" stroke-miterlimit="10" points="
			371.6,395.7 371.6,448 324.4,448 324.4,395.7 		"/>
	</g>
	
		<line fill="none" stroke="#000000" stroke-width="20" stroke-linecap="round" stroke-linejoin="round" stroke-miterlimit="10" x1="114.1" y1="278.9" x2="397.9" y2="278.9"/>
	<path fill="none" stroke="#000000" stroke-width="20" stroke-linecap="round" stroke-linejoin="round" stroke-miterlimit="10" d="
		M121.2,166.9c5.8-26.4,25-45.8,47.7-45.8h174.2c22.8,0,41.9,19.4,47.7,45.7"/>
	<g>
		<g>
			
				<line fill="none" stroke="#000000" stroke-width="20" stroke-linecap="round" stroke-linejoin="round" stroke-miterlimit="10" x1="216.1" y1="319.3" x2="295.9" y2="319.3"/>
			
				<line fill="none" stroke="#000000" stroke-width="20" stroke-linecap="round" stroke-linejoin="round" stroke-miterlimit="10" x1="216.1" y1="353.4" x2="295.9" y2="353.4"/>
		</g>
		
			<ellipse fill="none" stroke="#000000" stroke-width="20" stroke-linecap="round" stroke-linejoin="round" stroke-miterlimit="10" cx="161.7" cy="336.3" rx="18.6" ry="18.5"/>
		
			<ellipse fill="none" stroke="#000000" stroke-width="20" stroke-linecap="round" stroke-linejoin="round" stroke-miterlimit="10" cx="350.3" cy="336.3" rx="18.6" ry="18.5"/>
	</g>
	
		<polyline fill="none" stroke="#000000" stroke-width="20" stroke-linecap="round" stroke-linejoin="round" stroke-miterlimit="10" points="
		78.5,354.8 78.5,64 433.5,64 433.5,354.8 	"/>
</g>
</svg>
